<svg width="22" height="29" viewBox="0 0 22 29" fill="none" xmlns="http://www.w3.org/2000/svg">
<path d="M11 21.6667C9.52004 21.6667 8.33337 20.4667 8.33337 19C8.33337 17.52 9.52004 16.3333 11 16.3333C11.7073 16.3333 12.3856 16.6143 12.8857 17.1144C13.3858 17.6145 13.6667 18.2928 13.6667 19C13.6667 19.7072 13.3858 20.3855 12.8857 20.8856C12.3856 21.3857 11.7073 21.6667 11 21.6667ZM19 25.6667V12.3333H3.00004V25.6667H19ZM19 9.66666C19.7073 9.66666 20.3856 9.94761 20.8857 10.4477C21.3857 10.9478 21.6667 11.6261 21.6667 12.3333V25.6667C21.6667 26.3739 21.3857 27.0522 20.8857 27.5523C20.3856 28.0524 19.7073 28.3333 19 28.3333H3.00004C1.52004 28.3333 0.333374 27.1333 0.333374 25.6667V12.3333C0.333374 10.8533 1.52004 9.66666 3.00004 9.66666H4.33337V7C4.33337 5.23188 5.03575 3.53619 6.28599 2.28595C7.53624 1.03571 9.23193 0.333328 11 0.333328C11.8755 0.333328 12.7424 0.505767 13.5513 0.840798C14.3601 1.17583 15.095 1.66689 15.7141 2.28595C16.3331 2.90501 16.8242 3.63993 17.1592 4.44877C17.4943 5.25761 17.6667 6.12452 17.6667 7V9.66666H19ZM11 2.99999C9.93917 2.99999 8.92176 3.42142 8.17161 4.17157C7.42147 4.92171 7.00004 5.93913 7.00004 7V9.66666H15V7C15 5.93913 14.5786 4.92171 13.8285 4.17157C13.0783 3.42142 12.0609 2.99999 11 2.99999Z" fill="#00CDB4"/>
</svg>
