<svg width="76" height="38" viewBox="0 0 76 38" fill="none" xmlns="http://www.w3.org/2000/svg">
<path d="M66.8978 15.9383C65.9772 15.9383 66.1432 15.6031 64.1603 15.6031C62.5009 15.6031 60.8788 16.3681 59.8937 17.2464C59.8937 14.159 62.5181 10.4598 66.8978 10.4598C68.6359 10.4598 69.6352 11.9025 69.6352 13.1991C69.6352 13.9256 69.3468 14.6223 68.8335 15.136C68.3201 15.6497 67.6238 15.9383 66.8978 15.9383Z" fill="#ffffff"/>
<path d="M70.3334 9.65905C70.3334 11.0917 71.277 11.235 71.277 13.1992C71.2828 13.9458 71.0955 14.6813 70.7332 15.334C70.371 15.9867 69.846 16.5345 69.2095 16.9242C71.7866 16.9242 75.8069 14.5488 75.8069 9.66048C75.8069 8.93398 75.5185 8.23723 75.0052 7.72352C74.4918 7.2098 73.7955 6.9212 73.0695 6.9212C72.3434 6.9212 71.6472 7.2098 71.1338 7.72352C70.6204 8.23723 70.332 8.93398 70.332 9.66048L70.3334 9.65905Z" fill="#ffffff"/>
<path d="M69.2056 0.00143298C68.5099 0.00123421 67.8401 0.26529 67.3314 0.740249C66.8227 1.21521 66.5132 1.86566 66.4653 2.56019C66.4653 2.62323 66.4653 2.68627 66.4653 2.7493C66.4653 2.81234 66.4653 2.87538 66.4653 2.93842C66.4205 4.69639 65.715 6.37282 64.4895 7.6333C64.3807 7.72881 64.2752 7.831 64.1731 7.93989C63.6565 8.47212 63.2274 9.08284 62.9017 9.74936C63.7773 9.296 64.724 8.99606 65.7008 8.86253C65.8058 8.85203 65.9098 8.83961 66.0129 8.82528C67.4083 8.62648 68.7115 8.01171 69.7526 7.06108C70.7938 6.11044 71.5247 4.86803 71.85 3.49573C71.8846 3.3721 71.9105 3.24619 71.9274 3.11893C71.9798 2.73046 71.9487 2.33525 71.836 1.9598C71.7234 1.58435 71.5318 1.23733 71.2742 0.941991C71.0167 0.646651 70.699 0.409814 70.3424 0.247352C69.9859 0.0848903 69.5988 0.000555694 69.2071 0L69.2056 0.00143298Z" fill="#ffffff"/>
<path d="M5.2974 23.3438C6.58596 21.414 8.44721 20.3352 10.738 20.3109V25.0888C7.58817 24.8138 5.58375 26.2536 5.2974 28.5803V36.7594H0V20.1404H5.2974V23.3438Z" fill="#ffffff"/>
<path d="M17.0896 15.9285C17.0896 17.5833 15.9256 18.7466 14.3034 18.7466C12.6813 18.7466 11.5187 17.5818 11.5187 15.9285C11.5187 14.3053 12.6827 13.142 14.3034 13.142C15.9242 13.142 17.0896 14.3053 17.0896 15.9285Z" fill="#ffffff"/>
<path d="M17.181 20.1404H11.8836V36.7594H17.181V20.1404Z" fill="#ffffff"/>
<path d="M36.5221 28.6421C36.5221 33.6651 33.6243 37.0046 29.0027 37.0046C26.8551 37.0046 25.3432 36.145 24.0546 34.6149V36.7639H18.6126V13.1205H24.0532V22.4859C25.3417 20.9844 26.7978 20.1277 28.8796 20.1277C33.5312 20.1277 36.5221 23.5274 36.5221 28.6421ZM31.1961 28.4888C31.1961 25.9773 29.6956 24.2008 27.4922 24.2008C25.3446 24.2008 23.8499 25.9773 23.8499 28.4888C23.8499 31.0676 25.3489 32.8069 27.4922 32.8069C29.6956 32.8083 31.1961 31.0289 31.1961 28.4888Z" fill="#ffffff"/>
<path d="M51.5097 28.5502C51.5097 33.6348 47.8975 37.003 42.5099 37.003C37.0922 37.003 33.4799 33.6333 33.4799 28.5502C33.4799 23.4671 37.0922 20.1275 42.5099 20.1275C47.8989 20.1275 51.5097 23.4656 51.5097 28.5502ZM38.8074 28.6118C38.8074 31.1906 40.3079 32.8998 42.5113 32.8998C44.6847 32.8998 46.1851 31.1806 46.1851 28.6118C46.1851 26.0688 44.6847 24.3238 42.5113 24.3238C40.3079 24.3238 38.8002 26.0702 38.8002 28.6118H38.8074Z" fill="#ffffff"/>
<path d="M69.4388 26.4071V36.7596H64.4278V27.877C64.4278 25.9472 63.2824 24.7524 61.507 24.7524C59.5785 24.7524 58.2713 26.1306 58.1281 28.0905V36.7596H52.6876V20.1406H58.1281V23.006C59.2735 21.0766 61.0718 20.0967 63.5229 20.0661C67.1652 20.0661 69.4388 22.5475 69.4388 26.4071Z" fill="#ffffff"/>
</svg>
