<svg width="276" height="177" viewBox="0 0 276 177" fill="none" xmlns="http://www.w3.org/2000/svg">
<ellipse rx="17.4033" ry="17.4383" transform="matrix(-1 0 0 1 76.834 146.979)" fill="white"/>
<ellipse opacity="0.6" rx="71.717" ry="71.861" transform="matrix(-1 0 0 1 163.661 94.4728)" fill="url(#paint0_linear)"/>
<path d="M244.061 97.0845L240.462 105.394L253.778 111.968L257.377 103.659L244.061 97.0845Z" fill="#FA84D4"/>
<path d="M259.008 101.465C255.115 100.501 254.206 100.593 252.506 101.27C254.354 103.36 254.904 105.028 254.381 106.791C254.197 107.408 253.452 108.475 251.572 109.143C250.55 109.506 249.584 109.543 249.753 110.715C250.593 116.537 250.632 123.822 251.433 124.99C252.235 126.158 253.799 126.079 254.771 125.346C255.743 124.614 257.635 121.406 258.912 113.597C259.787 108.248 261.481 107.294 261.683 103.794C261.729 102.992 260.657 101.873 259.008 101.465Z" fill="url(#paint1_linear)"/>
<path d="M255.856 100.855C256.018 101.927 256.749 103.276 257.911 104.328C259.058 105.367 259.631 105.558 259.943 105.738" stroke="#FA84D4" stroke-width="0.649284"/>
<path d="M250.263 113.907L253.375 113.241M249.645 110.331C254.524 110.353 256.137 107.43 255.618 105.051C255.089 102.62 254.497 102.475 253.587 100.923L249.645 110.331ZM250.073 112.123L253.069 111.325L250.073 112.123Z" stroke="#FA84D4" stroke-width="0.649284"/>
<path d="M250.295 117.085C250.748 116.464 252.154 115.211 253.203 115.141C254.515 115.055 255.172 116.484 254.909 118.116C254.337 121.656 251.789 123.484 250.946 123.839" stroke="#FA84D4" stroke-width="0.649284"/>
<path d="M257.483 116.009C257.057 114.133 256.223 110.283 256.193 109.445C256.126 107.538 257.695 106.309 259.174 108.904" stroke="#FA84D4" stroke-width="0.649284"/>
<path fill-rule="evenodd" clip-rule="evenodd" d="M259.882 101.768C260.22 102.552 260.464 103.546 260.245 104.495C260.082 105.2 259.801 106.086 259.474 107.112C258.889 108.949 258.161 111.239 257.712 113.759C257.011 117.687 256.34 121.081 255.663 122.387C255.022 123.624 254.381 124.859 252.641 125.823C253.367 125.997 254.179 125.794 254.772 125.347C255.744 124.614 257.636 121.406 258.913 113.598C259.359 110.874 260.016 109.29 260.581 107.929C261.126 106.617 261.585 105.512 261.684 103.795C261.722 103.145 261.025 102.287 259.882 101.768Z" fill="#FA84D4"/>
<path d="M250.896 64.6808L258.658 66.9858L263.047 50.1387L255.284 47.8337L250.896 64.6808Z" fill="#FA84D4"/>
<path d="M254.745 45.706C254.041 48.0862 254.03 49.7541 254.14 51.749C256.261 50.2032 257.816 49.8995 259.293 50.6899C259.81 50.9669 260.64 51.8766 260.948 53.8671C261.115 54.9496 261.003 55.9274 262.063 55.9327C267.327 55.9588 273.927 57.2845 274.848 56.7794C275.999 56.1479 276.258 55.3369 275.757 54.2497C275.256 53.1625 271.907 47.9265 267.391 46.0314C262.875 44.1362 257.877 43.0072 257.166 43.1108C256.455 43.2141 255.231 44.0617 254.745 45.706Z" fill="url(#paint2_linear)"/>
<path d="M255.137 44.7981C255.738 44.6049 257.096 44.8226 257.319 44.8674C257.542 44.9122 258.785 45.2593 260.061 45.5962C262.32 46.1926 264.936 46.8829 266.022 47.4169C267.723 48.2523 270.099 49.84 272.035 51.9559C273.249 53.2819 274.623 55.1823 275.38 56.3926C276.042 55.9095 276.163 55.1287 275.758 54.2495C275.094 52.8075 271.725 47.8245 267.209 45.9296C262.693 44.0344 257.695 42.9054 256.984 43.0087C256.408 43.0926 255.722 43.7115 255.137 44.7981Z" fill="#FA84D4"/>
<path d="M254.114 48.3656C255.084 48.3634 256.102 47.8286 257.205 46.8173C258.294 45.8186 258.548 45.2711 258.753 44.9836" stroke="#FA84D4" stroke-width="0.649284"/>
<path d="M264.957 55.8983L264.834 52.668M261.708 55.9846C262.458 51.0801 260.12 49.0198 257.942 49.1849C255.718 49.354 255.502 49.927 253.995 50.6102L261.708 55.9846ZM263.354 55.8225L263.098 52.6887L263.354 55.8225Z" stroke="#FA84D4" stroke-width="0.649284"/>
<path d="M267.766 56.3407C267.286 55.7919 266.39 54.1897 266.486 53.1239C266.606 51.7916 267.966 51.3447 269.367 51.854C272.405 52.9587 273.637 55.7957 273.824 56.6966" stroke="#FA84D4" stroke-width="0.649284"/>
<path d="M267.905 48.3546C266.185 48.5017 263.218 48.4668 262.474 48.3714C260.78 48.1537 260.502 47.1116 261.96 46.0486" stroke="#FA84D4" stroke-width="0.649284"/>
<path d="M220.505 93.164L200.443 62.493L220.471 48.2742L231.691 84.1512L249.345 97.8723C249.345 97.8723 252.873 99.2464 250.76 105.155C248.647 111.064 246.256 109.69 246.256 109.69L222.144 94.7726C221.494 94.3705 220.935 93.8214 220.505 93.164Z" fill="#623CEA"/>
<path d="M213.665 59.0577L231.69 84.1507L222.199 53.5115L213.665 59.0577Z" fill="#323D9F"/>
<path d="M246.384 69.5658L230.01 45.396L214.793 63.4081C222.573 70.0454 238.8 82.6958 247.705 89.5883C250.661 91.8759 254.827 90.2207 255.691 86.4342L261.829 59.5348C261.829 59.5348 262.987 58.1607 258.225 55.8247C253.463 53.4887 252.047 54.8628 252.047 54.8628L246.384 69.5658Z" fill="#8363F3"/>
<path d="M189.612 85.9426L190.807 83.6704L201.827 89.7698C199.304 93.5973 192.319 102.241 191.262 103.048C190.237 103.83 189.821 102.946 189.899 102.741C189.641 103.179 188.903 104.146 188.012 104.504C187.122 104.862 186.637 103.88 186.505 103.343C185.743 104.671 184.111 105.581 183.109 104.168C182.605 103.456 182.999 102.228 183.265 101.65C182.877 102.079 181.733 102.489 180.881 101.902C180.029 101.315 179.041 100.454 179.919 99.2674C180.322 98.7233 183.361 95.1423 185.23 92.6049C184.566 92.3216 184.301 92.1798 182.707 92.3174C182.707 92.3174 183.371 89.1987 186.505 87.3561C187.644 86.6869 188.446 86.176 189.612 85.9426Z" fill="url(#paint3_linear)"/>
<path d="M144.587 20.4894C144.469 19.5374 145.458 19.1889 146.688 18.9141C151.232 17.8981 152.373 18.0121 163.568 17.0486L167.561 28.6799C158.535 27.056 150.938 28.6816 149.82 28.3834C148.736 28.0945 149.056 27.2857 149.231 27.2244C148.805 27.2907 147.769 27.3146 147.03 26.8784C146.291 26.4423 146.634 25.5274 146.898 25.1245C145.62 25.3383 144.105 24.6856 144.423 23.1505C144.583 22.3779 145.587 21.9558 146.106 21.8151C145.611 21.7819 144.706 21.4411 144.587 20.4894Z" fill="#FFC2A0"/>
<path d="M159.918 17.3208C170.371 16.6282 186.08 15.4828 205.465 25.7892C218.141 32.5281 231.595 45.6643 232.544 49.1606C232.143 52.9842 229.412 61.8932 221.688 66.9395C213.964 71.9855 209.516 73.4544 208.258 73.5583C208.089 75.0858 206.713 80.3992 204.821 84.518C203.112 88.2382 200.99 91.2767 199.919 92.4999L189.602 85.9187C197.794 71.6205 196.782 52.9974 185.969 40.28C179.549 32.7295 173.406 28.9213 161.469 28.0999L159.918 17.3208Z" fill="#FA84D4"/>
<path fill-rule="evenodd" clip-rule="evenodd" d="M208.211 73.8957L208.199 73.8937C208.345 73.0011 208.521 72.2 208.72 71.2923C209.248 68.8837 209.942 65.7233 210.671 58.1063C211.367 50.8383 211.09 47.1167 210.976 45.5944C210.962 45.3921 210.949 45.2286 210.943 45.1008L214.127 71.3494C210.975 72.9253 209.025 73.495 208.258 73.5582C208.248 73.6557 208.232 73.7687 208.211 73.8957Z" fill="#C35BC3"/>
<path fill-rule="evenodd" clip-rule="evenodd" d="M181.48 40.9802C182.83 42.1806 183.697 43.7754 184.059 45.4889C187.439 45.3848 194.077 42.0756 194.979 35.0297C196.091 26.3519 195.05 21.1575 191.29 19.6633C187.53 18.1691 183.103 20.2041 179.439 25.0844C177.214 28.0487 176.473 30.6309 176.327 32.1982C178.218 34.0808 179.033 36.7864 178.704 39.4057C179.694 39.7113 180.64 40.2338 181.48 40.9802Z" fill="#FFD8C2"/>
<path fill-rule="evenodd" clip-rule="evenodd" d="M181.48 40.9802C182.83 42.1806 183.697 43.7754 184.059 45.4889C187.439 45.3848 194.077 42.0756 194.979 35.0297C196.091 26.3519 195.05 21.1575 191.29 19.6633C187.53 18.1691 183.103 20.2041 179.439 25.0844C177.214 28.0487 176.473 30.6309 176.327 32.1982C178.218 34.0808 179.033 36.7864 178.704 39.4057C179.694 39.7113 180.64 40.2338 181.48 40.9802Z" fill="#FFC2A0"/>
<path fill-rule="evenodd" clip-rule="evenodd" d="M187.717 29.3185C191.164 27.3288 194.932 27.1628 198.003 29.8935C202.702 34.0708 203.132 41.4091 198.813 46.9462C194.836 52.0444 188.325 53.3834 183.65 50.3037C184.581 47.6173 184.297 44.6344 182.635 42.3756C182.544 42.2517 182.45 42.1316 182.353 42.0151C184.066 41.6303 185.684 40.6404 186.902 39.0786C189.134 36.2182 189.355 32.2948 187.717 29.3185Z" fill="url(#paint4_linear)"/>
<path d="M180.145 34.6264C179.824 34.1899 179.895 33.5582 180.304 33.2153C180.713 32.8724 181.304 32.9483 181.625 33.3848L182.456 34.5138C182.777 34.9503 182.706 35.5821 182.297 35.9249C181.889 36.2678 181.297 36.1919 180.976 35.7555L180.145 34.6264Z" fill="#2A1672"/>
<path fill-rule="evenodd" clip-rule="evenodd" d="M182.891 25.5597C184.03 25.8268 185.123 26.3789 186.077 27.2265C188.54 29.416 189.356 32.9472 188.395 36.0703C192.163 34.8687 195.808 32.5674 197.879 29.9126C197.833 29.4883 197.805 28.9419 197.772 28.306C197.594 24.8457 197.281 18.7281 193.187 15.0887C190.178 12.4135 186.172 11.7836 182.534 13.0162C181.464 12.6526 179.493 12.3393 177.78 13.2336C177.006 13.6373 176.346 14.3595 175.751 15.2112L175.726 15.2055C175.2 15.9648 174.726 16.8233 174.27 17.6489H174.27C173.672 18.7314 173.106 19.7571 172.496 20.4285C171.909 21.2087 171.113 21.829 170.158 22.1805C168.439 22.8134 166.623 22.422 165.307 21.3112C164.586 23.3344 164.498 25.6193 165.207 27.8143C166.829 32.8353 172.003 35.4849 176.765 33.7321C180.239 32.4531 182.534 29.184 182.891 25.5597ZM187.617 23.5007C187.377 25.6265 188.558 27.5258 190.255 27.7431C191.95 27.9605 193.519 26.4138 193.758 24.2883C193.997 22.1629 192.816 20.2633 191.12 20.0459C189.424 19.8285 187.856 21.3752 187.617 23.5007Z" fill="url(#paint5_linear)"/>
<path d="M188.485 41.0671C188.772 41.7306 188.645 43.2566 187.481 43.975" stroke="#2A1672" stroke-width="2.59714" stroke-linecap="round" stroke-linejoin="bevel"/>
<path d="M188.861 24.1573C188.745 23.4376 189.237 21.9983 190.536 21.6262" stroke="#FFC2A0" stroke-width="2.59714" stroke-linecap="round" stroke-linejoin="bevel"/>
<path d="M173.249 154.14L181.445 157.305L177.771 168.149L169.574 164.984L173.249 154.14Z" fill="#8363F3"/>
<path d="M167.278 165.245C169.052 161.457 169.695 160.773 171.256 159.815C171.582 162.647 172.429 164.153 174.023 164.842C174.581 165.083 175.818 165.15 177.486 164.039C178.393 163.435 179.032 162.669 179.765 163.55C183.402 167.924 188.594 172.569 188.923 173.963C189.252 175.357 188.205 176.584 187.065 176.914C185.924 177.243 182.428 176.756 176.027 172.852C171.642 170.178 169.886 170.957 167.251 168.905C166.647 168.435 166.526 166.85 167.278 165.245Z" fill="url(#paint6_linear)"/>
<path d="M169.033 162.521C169.698 163.332 170.007 164.55 170.024 166.165C170.042 167.76 169.816 168.348 169.746 168.716" stroke="#FFA26D" stroke-width="0.649284"/>
<path d="M181.729 165.988L179.28 168.107M179.559 163.219C176.484 167.216 173.369 166.681 171.993 164.75C170.588 162.779 170.858 162.204 170.323 160.478L179.559 163.219ZM180.571 164.703L178.102 166.644L180.571 164.703Z" stroke="#FFA26D" stroke-width="0.649284"/>
<path d="M183.983 168.028C183.251 168.004 181.463 168.359 180.748 169.171C179.856 170.186 180.463 171.628 181.799 172.447C184.696 174.223 187.619 173.3 188.407 172.838" stroke="#FFA26D" stroke-width="0.649284"/>
<path d="M179.027 173.359C177.953 171.823 175.358 168.558 174.777 168.003C173.454 166.74 172.282 167.31 172.731 169.999" stroke="#FFA26D" stroke-width="0.649284"/>
<path fill-rule="evenodd" clip-rule="evenodd" d="M166.941 166.153C167.288 166.925 167.846 167.754 168.664 168.176C169.272 168.49 170.085 168.821 171.027 169.204C172.713 169.89 174.814 170.746 176.903 171.975C180.161 173.892 183.017 175.494 184.381 175.768C185.672 176.028 186.963 176.287 188.756 175.477C188.421 176.18 187.76 176.715 187.065 176.915C185.925 177.245 182.429 176.757 176.027 172.854C173.794 171.492 172.243 171.026 170.911 170.625C169.626 170.239 168.544 169.914 167.251 168.907C166.762 168.526 166.59 167.414 166.941 166.153Z" fill="#FFA26D"/>
<path d="M171.604 155.997L178.297 118.072L193.099 126.591L181.643 160.807C181.643 160.807 179.07 161.79 174.822 160.394C170.575 158.999 171.604 155.997 171.604 155.997Z" fill="#C86127"/>
<path d="M201.378 143.036L208.867 138.271L217.782 154.242L210.293 159.007L201.378 143.036Z" fill="#8363F3"/>
<path d="M205.753 158.109C205.457 155.474 205.753 153.728 206.236 151.667C208.167 153.728 209.735 154.373 211.425 153.857C212.016 153.677 213.051 152.901 213.74 150.886C214.114 149.79 214.178 148.745 215.286 148.962C220.791 150.041 227.931 150.044 228.8 150.766C229.886 151.667 230.007 152.569 229.283 153.6C228.559 154.63 224.094 159.397 219.026 160.428C213.959 161.458 208.529 161.587 207.805 161.329C207.081 161.071 205.958 159.929 205.753 158.109Z" fill="url(#paint7_linear)"/>
<path d="M205.995 159.139C206.586 159.467 208.046 159.525 208.287 159.525C208.528 159.525 209.89 159.424 211.286 159.34C213.756 159.192 216.617 159.02 217.85 158.691C219.781 158.176 222.556 157.016 224.97 155.213C226.482 154.082 228.269 152.386 229.283 151.28C229.886 151.924 229.868 152.765 229.283 153.599C228.322 154.966 223.884 159.464 218.816 160.495C213.748 161.525 208.318 161.654 207.594 161.396C207.008 161.188 206.405 160.397 205.995 159.139Z" fill="#FFA26D"/>
<path d="M205.584 155.197C206.598 155.403 207.563 156.176 208.528 157.464C209.482 158.736 209.647 159.362 209.808 159.705" stroke="#FFA26D" stroke-width="0.649284"/>
<path d="M218.303 149.606L217.579 152.956M214.924 148.833C214.803 154.115 211.98 155.776 209.736 155.146C207.443 154.502 207.322 153.857 205.874 152.827L214.924 148.833ZM216.614 149.349L215.769 152.569L216.614 149.349Z" stroke="#FFA26D" stroke-width="0.649284"/>
<path d="M221.319 149.735C220.715 150.207 219.485 151.693 219.388 152.826C219.267 154.243 220.606 154.996 222.163 154.759C225.542 154.243 227.352 151.538 227.714 150.636" stroke="#FFA26D" stroke-width="0.649284"/>
<path d="M219.992 158.108C218.222 157.593 215.115 157.005 214.321 156.949C212.511 156.82 212.028 157.851 213.356 159.268" stroke="#FFA26D" stroke-width="0.649284"/>
<path d="M186.155 108.199L144.176 112.643L124.903 118.594C125.999 120.735 128.038 128.978 134.078 136.061C141.714 145.015 153.599 141.869 158.269 140.016L185.12 126.316L204.297 150.5C204.297 150.5 206.099 151.71 210.089 149.951C214.079 148.191 214.465 146.378 214.465 146.378L196.272 113.66C194.179 109.896 190.235 107.767 186.155 108.199Z" fill="#FFA26D"/>
<path d="M190.14 108.59L159.101 120.175L152.085 111.648L186.278 108.178C188.466 108.04 189.496 108.315 190.14 108.59Z" fill="#C86127"/>
<path d="M179.575 95.6446C177.405 97.8247 173.914 98.0026 173.914 98.0026L181.495 109.788C188.188 106.765 193.652 103.864 194.762 103.002C195.838 102.167 196.294 101.912 196.294 100.55C196.294 100.003 197.319 99.9574 197.953 99.1241C198.263 98.7152 198.591 98.3483 198.335 96.9439C199.656 96.5353 199.739 95.5814 199.739 95.1727C199.739 94.7638 199.514 94.0665 199.128 93.7917C198.235 93.928 197.57 94.4183 192.082 94.827C186.594 95.2356 186.02 94.5568 185.701 93.4644L187.487 91.0116C185.956 90.6029 184.169 90.8753 182.893 92.1018C181.337 93.5969 181.744 93.4644 179.575 95.6446Z" fill="url(#paint8_linear)"/>
<path d="M185.948 93.5426L188.628 89.8635" stroke="#FFA26D" stroke-width="1.29857" stroke-linecap="round"/>
<path d="M126.912 34.52C126.065 34.063 125.67 34.5447 124.849 35.6575C121.376 40.3657 119.797 46.3649 117.891 51.9094L128.623 54.2152C128.804 52.9996 129.449 49.9024 130.326 47.3608C131.202 44.8195 132.205 43.1698 132.244 42.7169C132.351 41.4626 131.484 41.5217 131.366 41.6865C131.576 41.257 131.959 40.1629 131.808 39.2247C131.658 38.2864 130.685 38.3332 130.217 38.4736C130.861 37.1877 130.778 35.3489 129.234 35.1532C128.457 35.0548 127.714 35.9765 127.402 36.4797C127.543 35.9414 127.76 34.977 126.912 34.52Z" fill="#FFC2A0"/>
<path d="M119.035 48.6187C115.959 56.0977 111.225 76.9683 116.906 100.618C120.619 116.082 130.348 133.819 133.519 135.639C137.306 136.043 146.527 135.002 153.115 127.604C159.704 120.205 162.109 115.627 162.487 114.263C164.002 114.414 169.445 114.073 173.847 112.898C177.823 111.837 181.231 110.169 182.651 109.26L178.568 96.4307C162.928 102.299 145.141 97.0644 135.233 82.3309C129.35 73.5833 127.328 63.0969 128.792 53.1016L119.035 48.6187Z" fill="#8363F3"/>
<path d="M0.000152588 6.03606C22.5883 1.14559 37.5476 26.0531 58.0036 45.9684C78.4596 65.8837 80.7629 76.081 95.8351 79.0845C104.973 80.9055 114.829 75.766 120.736 68.315C121.414 67.3675 122.064 66.5298 122.714 65.8837C127.698 59.9456 130.066 58.8166 134.367 58.3829C140.387 57.7761 145.196 63.4922 144.703 70.0769C144.256 76.0554 139.577 80.6384 133.893 81.0201C132.93 89.4558 126.779 105.962 110.94 114.403C94.6991 123.058 75.4061 118.034 58.0036 116.55C14.4436 109.243 33.5808 114.26 17.6932 124.156C13.1756 126.971 10.0857 133.542 0.000152588 139.18V81.0201V6.03606Z" fill="url(#paint9_linear)"/>
<path d="M143.398 91.1005C141.982 91.7876 138.423 93.4074 134.132 91.9802C133.326 91.7123 131.543 90.5481 131.543 90.5481L131.428 90.4728C131.428 90.4728 133.772 83.2123 133.92 79.8886C133.825 79.8803 133.702 79.882 133.556 79.8839C132.856 79.8933 131.637 79.9092 130.571 78.8882C128.922 77.0296 129.459 74.9756 129.9 74.1954C130.415 73.2849 131.702 72.3038 133.692 73.0188C135.284 73.591 136.152 75.4103 136.387 76.2486C136.971 75.8437 138.381 74.1824 139.352 70.7746C139.806 69.1776 139.995 67.8137 140.042 66.738C140.417 67.5463 141.084 68.7269 142.214 70.0645C144.326 72.5626 146.813 73.4566 146.813 73.4566C146.768 73.5951 146.708 73.7383 146.642 73.8994C146.389 74.5095 146.031 75.3738 145.895 77.1959C145.757 79.0427 146.003 80.0378 146.22 80.9134C146.39 81.601 146.541 82.2147 146.474 83.1084C146.238 86.2667 143.643 86.1793 141.937 86.1218C141.883 86.1202 141.831 86.1183 141.779 86.1166L143.398 91.1005Z" fill="#FFC2A0"/>
<path d="M143.397 91.0976C143.026 91.2996 142.507 91.5412 141.866 91.7619L139.02 85.1345L141.852 86.0964L143.397 91.0976Z" fill="#FFA26D"/>
<path d="M140.343 73.1407C140.132 72.6661 140.321 72.0986 140.765 71.8729C141.21 71.6473 141.741 71.849 141.953 72.3236L142.499 73.551C142.711 74.0256 142.522 74.5931 142.077 74.8188C141.633 75.0447 141.101 74.8427 140.89 74.3683L140.343 73.1407Z" fill="#2A1672"/>
<path d="M142.959 80.7249C143.238 81.1335 144.144 81.5672 144.943 81.0588" stroke="#2A1672" stroke-width="2.59714" stroke-linecap="round" stroke-linejoin="bevel"/>
<path d="M162.438 114.407C161.97 114.415 161.532 114.428 161.096 114.44C158.394 114.516 155.794 114.59 146.986 113.559C139.803 112.719 136.265 111.59 134.818 111.128C134.626 111.067 134.47 111.018 134.348 110.982L159.139 120.143C160.05 118.852 160.747 117.754 161.264 116.855L161.953 115.568C162.194 115.073 162.352 114.685 162.438 114.407Z" fill="#323D9F"/>
<path d="M119.614 5.02522C120.979 4.87599 124.178 5.38001 125.887 6.77831C128.724 9.09891 128.697 12.355 129.34 15.0595C129.984 17.7643 131.792 19.0601 133.307 20.4799" stroke="#9CA5FB" stroke-width="9.73926" stroke-linecap="round"/>
<path d="M119.949 18.4557C119.087 18.1638 118.178 18.6374 117.825 19.5253C117.367 20.6741 118.012 22.079 119.085 22.5742C120.078 23.0326 121.423 23.7425 123.138 24.8332C127.367 27.5232 128.521 29.3774 128.521 29.3774L129.942 24.0275C129.942 24.0275 127.6 21.9888 124.455 20.3333C122.917 19.5231 121.164 18.8674 119.949 18.4557Z" fill="#9CA5FB"/>
<path d="M125.957 44.9462C125.656 45.8559 126.071 46.8414 126.891 47.2467C127.952 47.7711 129.287 47.1277 129.785 45.9985C130.246 44.9533 130.953 43.5408 132.029 41.7453C134.682 37.3185 136.454 36.1464 136.454 36.1464L131.491 34.4592C131.491 34.4592 129.508 36.8939 127.858 40.197C127.051 41.8129 126.381 43.6628 125.957 44.9462Z" fill="#7683F6"/>
<path d="M157.157 24.2201C158.056 24.3138 158.717 25.1317 158.715 26.0966C158.711 27.3446 157.6 28.365 156.432 28.3691C155.35 28.373 153.851 28.4598 151.872 28.7415C146.994 29.4363 145.249 30.6557 145.249 30.6557L145.915 25.1402C145.915 25.1402 148.821 24.2509 152.322 24.0514C154.035 23.9535 155.888 24.0879 157.157 24.2201Z" fill="#7683F6"/>
<path d="M134.831 9.57578C134.836 8.61088 135.538 7.83286 136.438 7.74684C137.602 7.63581 138.656 8.72301 138.767 9.96548C138.87 11.1153 139.089 12.7 139.534 14.7779C140.63 19.9009 141.928 21.6435 141.928 21.6435L136.722 21.4418C136.722 21.4418 135.626 18.435 135.118 14.7312C134.869 12.9193 134.824 10.9367 134.831 9.57578Z" fill="#9CA5FB"/>
<path d="M140.957 20.2246C138.504 16.6178 133.777 15.8172 130.398 18.4363C127.02 21.0556 126.27 26.1028 128.724 29.7093L135.33 39.4215L147.563 29.9368L140.957 20.2246Z" fill="#7683F6"/>
<path opacity="0.2" d="M126.037 46.3013C126.037 46.3013 127.744 44.1561 128.409 43.2852C128.409 43.2852 125.78 44.7898 125.78 44.9272C125.78 45.2172 125.909 46.1639 126.037 46.3013Z" fill="#322B4F"/>
<path d="M128.188 43.6212L122.566 48.3284L124.079 42.4499C124.811 42.0962 127.164 41.0222 128.161 41.4474C129.158 41.8725 128.595 43.0738 128.188 43.6212Z" fill="url(#paint10_linear)"/>
<path d="M125.881 43.0225C124.545 43.7239 123.66 44.1672 123.66 44.1672C123.66 44.1672 123.613 43.8816 124.089 43.0854C124.564 42.2896 124.867 42.115 124.867 42.115C125.599 41.7616 127.165 41.0221 128.161 41.4472C129.158 41.8724 127.217 42.3212 125.881 43.0225Z" fill="url(#paint11_linear)"/>
<path opacity="0.2" d="M157.108 24.2713C157.108 24.2713 154.028 25.4244 153.019 25.7432C153.019 25.7432 154.618 24.0256 155.275 24.0531C155.546 24.0646 157.114 24.1308 157.108 24.2713Z" fill="#322B4F"/>
<path d="M153.395 25.6561L159.634 21.9383L153.971 21.1572C153.382 21.7418 151.545 23.6435 151.528 24.7893C151.51 25.935 152.765 25.8446 153.395 25.6561Z" fill="url(#paint12_linear)"/>
<path d="M153.768 23.1521C154.89 22.1072 155.614 21.4078 155.614 21.4078C155.614 21.4078 155.386 21.2511 154.514 21.4119C153.643 21.5727 153.376 21.8027 153.376 21.8027C152.787 22.3872 151.544 23.6432 151.526 24.7889C151.508 25.9349 152.646 24.1972 153.768 23.1521Z" fill="url(#paint13_linear)"/>
<path fill-rule="evenodd" clip-rule="evenodd" d="M135.148 30.9131L129.106 31.8981L133.519 39.0045C133.694 39.553 133.935 40.0812 134.244 40.5795C136.55 44.2929 141.785 44.9214 145.935 41.9833C150.086 39.0451 151.582 33.6531 149.276 29.9397C149.009 29.5099 148.703 29.1216 148.364 28.775L148.362 28.7725L148.386 28.7552L148.355 28.7605L143.873 21.5444L140.715 27.0274C139.646 27.3281 138.584 27.8288 137.585 28.5359C136.626 29.2145 135.809 30.0238 135.148 30.9131Z" fill="#9CA5FB"/>
<path d="M143.855 21.4578L143.322 27.5484C143.322 27.5484 144.457 27.5061 145.904 27.9381C147.351 28.3701 148.431 28.9208 148.431 28.9208L143.855 21.4578Z" fill="url(#paint14_linear)"/>
<path d="M129.106 31.8982L134.721 32.7974C134.721 32.7974 133.967 33.9426 133.669 35.8798C133.37 37.817 133.638 39.1953 133.638 39.1953L129.106 31.8982Z" fill="url(#paint15_linear)"/>
<path fill-rule="evenodd" clip-rule="evenodd" d="M142.907 35.0458C143.104 34.9211 143.345 35.1132 143.288 35.3503L142.91 36.9289L143.135 37.2757C143.429 37.7295 144.089 37.8606 144.628 37.4615C145.167 37.0622 145.284 36.357 144.989 35.903C144.874 35.7266 144.916 35.4842 145.081 35.3616C145.246 35.2393 145.473 35.2833 145.588 35.4597C146.148 36.3224 145.859 37.4972 145.043 38.101C144.511 38.4949 143.844 38.5792 143.29 38.3508C143.252 38.937 142.951 39.5092 142.459 39.8734C141.643 40.4771 140.511 40.354 139.951 39.4914C139.837 39.3149 139.878 39.0725 140.043 38.95C140.208 38.8277 140.436 38.8716 140.55 39.0481C140.845 39.5021 141.505 39.6332 142.044 39.2339C142.583 38.8348 142.7 38.1296 142.405 37.6756L142.263 37.4563L140.654 37.0169C140.431 36.9561 140.389 36.639 140.586 36.5142L142.907 35.0458Z" fill="#7683F6"/>
<path d="M138.142 36.0372C137.869 35.5986 137.693 34.8005 138.258 34.4006C138.71 34.0807 139.297 34.1775 139.569 34.6161L139.755 34.9835M142.079 33.4041L141.893 33.037C141.621 32.5981 141.766 31.983 142.217 31.6634C142.669 31.3438 143.256 31.4402 143.529 31.8791L143.715 32.2463" stroke="white" stroke-width="1.94785" stroke-linecap="round" stroke-linejoin="round"/>
<defs>
<linearGradient id="paint0_linear" x1="-103.842" y1="-72.905" x2="72.1416" y2="143.377" gradientUnits="userSpaceOnUse">
<stop stop-color="#8363F3"/>
<stop offset="1" stop-color="#8363F3" stop-opacity="0"/>
</linearGradient>
<linearGradient id="paint1_linear" x1="246.118" y1="105.547" x2="259.41" y2="106.859" gradientUnits="userSpaceOnUse">
<stop stop-color="#C6C9E8"/>
<stop offset="1" stop-color="white"/>
</linearGradient>
<linearGradient id="paint2_linear" x1="256.958" y1="58.815" x2="260.69" y2="45.809" gradientUnits="userSpaceOnUse">
<stop stop-color="#C6C9E8"/>
<stop offset="1" stop-color="white"/>
</linearGradient>
<linearGradient id="paint3_linear" x1="149.38" y1="88.0687" x2="189.431" y2="97.4852" gradientUnits="userSpaceOnUse">
<stop stop-color="#FFA26D"/>
<stop offset="1" stop-color="#FFC2A0"/>
</linearGradient>
<linearGradient id="paint4_linear" x1="198.065" y1="54.6278" x2="187.907" y2="35.7392" gradientUnits="userSpaceOnUse">
<stop stop-color="#FA84D4"/>
<stop offset="1" stop-color="#623CEA"/>
</linearGradient>
<linearGradient id="paint5_linear" x1="167.528" y1="12.9478" x2="181.04" y2="33.9166" gradientUnits="userSpaceOnUse">
<stop stop-color="#FA84D4"/>
<stop offset="1" stop-color="#623CEA"/>
</linearGradient>
<linearGradient id="paint6_linear" x1="178.365" y1="157.309" x2="170.345" y2="168.606" gradientUnits="userSpaceOnUse">
<stop stop-color="#C6C9E8"/>
<stop offset="1" stop-color="white"/>
</linearGradient>
<linearGradient id="paint7_linear" x1="210.484" y1="144.877" x2="211.659" y2="159.277" gradientUnits="userSpaceOnUse">
<stop stop-color="#C6C9E8"/>
<stop offset="1" stop-color="white"/>
</linearGradient>
<linearGradient id="paint8_linear" x1="187.287" y1="89.9442" x2="191.358" y2="104.517" gradientUnits="userSpaceOnUse">
<stop stop-color="#FFD8C2"/>
<stop offset="1" stop-color="#FFC2A0"/>
</linearGradient>
<linearGradient id="paint9_linear" x1="-12.6751" y1="18.7247" x2="51.6515" y2="129.662" gradientUnits="userSpaceOnUse">
<stop stop-color="#FA84D4"/>
<stop offset="1" stop-color="#623CEA"/>
</linearGradient>
<linearGradient id="paint10_linear" x1="129.122" y1="45.2713" x2="124.715" y2="43.1896" gradientUnits="userSpaceOnUse">
<stop stop-color="#FFA26D"/>
<stop offset="1" stop-color="#FFC2A0"/>
</linearGradient>
<linearGradient id="paint11_linear" x1="124.903" y1="42.131" x2="125.336" y2="43.2117" gradientUnits="userSpaceOnUse">
<stop stop-color="#FFD8C2"/>
<stop offset="1" stop-color="#FFD8C2" stop-opacity="0"/>
</linearGradient>
<linearGradient id="paint12_linear" x1="154.46" y1="27.2132" x2="154.074" y2="22.091" gradientUnits="userSpaceOnUse">
<stop stop-color="#FFA26D"/>
<stop offset="1" stop-color="#FFC2A0"/>
</linearGradient>
<linearGradient id="paint13_linear" x1="153.362" y1="21.9316" x2="154.3" y2="22.8842" gradientUnits="userSpaceOnUse">
<stop stop-color="#FFD8C2"/>
<stop offset="1" stop-color="#FFD8C2" stop-opacity="0"/>
</linearGradient>
<linearGradient id="paint14_linear" x1="140.452" y1="18.8186" x2="147.603" y2="29.5318" gradientUnits="userSpaceOnUse">
<stop stop-color="white"/>
<stop offset="1" stop-color="white" stop-opacity="0"/>
</linearGradient>
<linearGradient id="paint15_linear" x1="128.997" y1="28.0257" x2="136.072" y2="35.9518" gradientUnits="userSpaceOnUse">
<stop stop-color="white"/>
<stop offset="1" stop-color="white" stop-opacity="0"/>
</linearGradient>
</defs>
</svg>
