<svg width="240" height="58" viewBox="0 0 240 58" fill="none" xmlns="http://www.w3.org/2000/svg">
<path d="M129.153 2C125.918 2 122.939 3.33205 121.064 5.51143C120.545 6.11466 119.481 6.11522 118.96 5.5134C117.074 3.33285 114.065 2 110.829 2C104.684 2 96.4425 6.73215 100.195 19.6442C104.063 31.0243 117.074 38.1765 119.589 39.4698C119.858 39.6081 120.166 39.6081 120.434 39.4697C122.947 38.1765 135.939 31.028 139.807 19.6442C143.559 6.73215 135.296 2 129.153 2Z" stroke="#D9E5EB" stroke-width="4"/>
<path d="M120 39.6818C99.8615 52.0398 54.7026 67.0315 1 43.9362" stroke="#D9E5EB" stroke-width="4"/>
<path d="M120 39.6818C140.138 52.0398 185.297 67.0315 239 43.9362" stroke="#D9E5EB" stroke-width="4"/>
</svg>
