<svg width="77" height="52" viewBox="0 0 77 52" fill="none" xmlns="http://www.w3.org/2000/svg">
<g opacity="0.5">
<mask id="mask0" mask-type="alpha" maskUnits="userSpaceOnUse" x="29" y="5" width="31" height="30">
<rect width="23.9525" height="23.7028" transform="matrix(0.9667 0.25591 -0.261756 0.965134 35.8665 5.92108)" fill="#C4C4C4"/>
</mask>
<g mask="url(#mask0)">
<path d="M49.5561 14.6531C48.0932 14.2659 46.5768 14.633 45.659 15.5871C45.3465 14.3073 44.2027 13.236 42.7398 12.8487C40.4539 12.2435 36.9208 13.1557 37.0411 18.2285C37.334 22.444 40.9397 26.1046 42.0858 27.168C42.3031 27.3695 42.6012 27.4484 42.8913 27.3811C44.4207 27.026 49.3891 25.6364 51.7763 22.1293C54.4477 17.7955 51.8414 15.2581 49.5561 14.6531Z" fill="#82AABE"/>
</g>
</g>
<g opacity="0.5">
<mask id="mask1" mask-type="alpha" maskUnits="userSpaceOnUse" x="0" y="23" width="30" height="29">
<rect width="23.9526" height="23.7028" transform="matrix(0.966775 -0.255629 0.262043 0.965056 0 29.1255)" fill="#C4C4C4"/>
</mask>
<g mask="url(#mask1)">
<path d="M16.2772 29.9292C14.8142 30.316 13.6869 31.3826 13.3752 32.662C12.4564 31.7079 10.9234 31.3448 9.46036 31.7317C7.17427 32.3361 4.57641 34.8704 7.24937 39.2042C9.63769 42.7103 14.614 44.1004 16.1451 44.4554C16.4353 44.5227 16.7334 44.4438 16.9505 44.2423C18.0953 43.1797 21.6943 39.5234 21.9857 35.3077C22.1047 30.2356 18.5627 29.3249 16.2772 29.9292Z" fill="#82AABE"/>
</g>
</g>
<g opacity="0.5">
<mask id="mask2" mask-type="alpha" maskUnits="userSpaceOnUse" x="10" y="0" width="31" height="30">
<rect width="23.9525" height="23.7028" transform="matrix(0.9667 -0.25591 0.261756 0.965134 10.6841 6.12971)" fill="#C4C4C4"/>
</mask>
<g mask="url(#mask2)">
<path d="M26.9587 6.92946C25.4958 7.31673 24.3684 8.38372 24.0564 9.66339C23.138 8.70943 21.6053 8.34664 20.1424 8.73392C17.8565 9.33906 15.2583 11.8743 17.9298 16.2081C20.3169 19.7141 25.2921 21.1031 26.8229 21.4578C27.113 21.5251 27.4111 21.4461 27.6282 21.2445C28.7731 20.1815 32.3725 16.5237 32.665 12.3073C32.7853 7.23449 29.244 6.32449 26.9587 6.92946Z" fill="#82AABE"/>
</g>
</g>
<g opacity="0.5">
<mask id="mask3" mask-type="alpha" maskUnits="userSpaceOnUse" x="47" y="21" width="31" height="30">
<rect width="23.9525" height="23.7028" transform="matrix(0.9667 0.25591 -0.261756 0.965134 53.8452 21.71)" fill="#C4C4C4"/>
</mask>
<g mask="url(#mask3)">
<path d="M67.5349 30.442C66.072 30.0548 64.5556 30.4219 63.6378 31.376C63.3252 30.0962 62.1815 29.0249 60.7186 28.6376C58.4327 28.0324 54.8995 28.9446 55.0198 34.0174C55.3127 38.2329 58.9184 41.8935 60.0646 42.9569C60.2818 43.1584 60.58 43.2373 60.87 43.17C62.3995 42.8149 67.3678 41.4253 69.755 37.9182C72.4265 33.5844 69.8202 31.047 67.5349 30.442Z" fill="#82AABE"/>
</g>
</g>
</svg>
