<svg width="59" height="72" viewBox="0 0 59 72" fill="none" xmlns="http://www.w3.org/2000/svg">
<path d="M29.688 38.875C26.4295 38.875 23.7881 41.5164 23.7881 44.7749C23.7881 46.6547 24.6685 48.3271 26.0345 49.406V54.7071C26.0345 56.722 27.6679 58.3557 29.6831 58.3557C31.698 58.3557 33.3317 56.7221 33.3317 54.7071V49.4136C34.7033 48.3351 35.5879 46.6593 35.5879 44.7749C35.5879 41.5164 32.9465 38.875 29.688 38.875Z" fill="#00CDB4" stroke="#FBFBFD" stroke-width="2"/>
<path d="M48.7574 25.8968H44.985V16.0071C44.985 7.71166 38.1014 1 29.6826 1C21.2638 1 14.3802 7.71166 14.3802 16.0071V25.8968H10.6176C5.68406 25.8968 1.67188 29.9089 1.67188 34.8425V61.8582C1.67188 66.7917 5.68406 70.8039 10.6176 70.8039H48.7574C53.6909 70.8039 57.7031 66.7917 57.7031 61.8582V34.8425C57.7031 29.9089 53.6909 25.8968 48.7574 25.8968ZM21.6774 16.0071C21.6774 11.7878 25.2377 8.29718 29.6826 8.29718C34.1275 8.29718 37.6878 11.7878 37.6878 16.0071V25.8968H21.6774V16.0071ZM50.4059 61.8582C50.4059 62.7663 49.6655 63.5067 48.7574 63.5067H10.6176C9.7095 63.5067 8.96906 62.7663 8.96906 61.8582V34.8425C8.96906 33.9344 9.7095 33.1939 10.6176 33.1939H48.7574C49.6655 33.1939 50.4059 33.9344 50.4059 34.8425V61.8582Z" fill="#00CDB4" stroke="#FBFBFD" stroke-width="2"/>
</svg>
