<svg width="80" height="80" viewBox="0 0 80 80" fill="none" xmlns="http://www.w3.org/2000/svg">
<path d="M18.4167 1.5C9.07385 1.5 1.5 9.07385 1.5 18.4167V61.5833C1.5 70.9261 9.07385 78.5 18.4167 78.5H61.5833C70.9261 78.5 78.5 70.9261 78.5 61.5833V18.4167C78.5 9.07385 70.9261 1.5 61.5833 1.5H18.4167Z" fill="url(#paint0_linear)" stroke="white" stroke-width="3"/>
<path d="M35.949 58.2852C33.6544 58.2852 34.0488 57.4606 29.1011 57.4606C24.9422 57.4606 20.8908 59.3608 18.417 61.5837C18.417 53.8753 24.978 44.5895 35.949 44.5895C40.2871 44.5895 42.7968 48.2106 42.7968 51.4373C42.7968 55.2377 39.7494 58.2852 35.949 58.2852ZM44.5536 42.5817C44.5536 46.167 46.9199 46.5255 46.9199 51.4373C46.9558 55.2377 44.9839 58.7872 41.7571 60.7591C48.2106 60.7591 58.2852 54.8075 58.2852 42.5817C58.2852 38.7813 55.2377 35.7339 51.4373 35.7339C47.637 35.7339 44.5536 38.7813 44.5536 42.5817ZM41.7571 18.417C38.136 18.417 35.1602 21.2135 34.9092 24.8346C34.9092 24.978 34.9092 25.1573 34.9092 25.3007C34.9092 25.4441 34.9092 25.6234 34.9092 25.7668C34.8017 30.1767 33.0449 34.3715 29.9616 37.5265C29.6747 37.7775 29.4238 38.0284 29.1728 38.3153C28.5633 38.9247 28.0255 39.6059 27.5236 40.2872C26.9499 41.0759 26.448 41.9364 25.9819 42.8327C28.1689 41.6854 30.5711 40.9325 33.0091 40.6098C33.26 40.574 33.5468 40.5381 33.7978 40.5023C40.9325 39.4625 46.7406 34.1922 48.3899 27.1651C48.4616 26.8424 48.5333 26.5556 48.5691 26.2329C48.605 25.9102 48.6408 25.6234 48.6408 25.3007C48.605 21.5003 45.5216 18.417 41.7571 18.417Z" fill="white"/>
<defs>
<linearGradient id="paint0_linear" x1="77" y1="3" x2="3" y2="77" gradientUnits="userSpaceOnUse">
<stop stop-color="#00CDB4"/>
<stop offset="1" stop-color="#00B5BF"/>
</linearGradient>
</defs>
</svg>
