<svg width="94" height="91" viewBox="0 0 94 91" fill="none" xmlns="http://www.w3.org/2000/svg">
<path d="M27.1448 90.6701C26.8026 90.6717 26.4667 90.5783 26.1744 90.4003C25.8821 90.2223 25.645 89.9668 25.4893 89.662L22.3724 83.7243C6.74187 54.1002 -3.57984 34.5205 2.51515 17.7708C4.23646 12.8534 7.44472 8.59311 11.6953 5.58039C15.9459 2.56768 21.0284 0.951713 26.2384 0.956431C29.2805 0.962125 32.298 1.50052 35.1543 2.54723C38.8835 3.93551 42.2714 6.10789 45.0892 8.91766C47.9069 11.7274 50.0889 15.1092 51.4877 18.8344C51.5826 19.1028 51.7578 19.3355 51.9894 19.501C52.221 19.6664 52.4979 19.7566 52.7826 19.7593C53.0192 19.7613 53.2521 19.7007 53.4577 19.5836C57.6489 17.2206 62.3809 15.9843 67.1923 15.995C70.3458 15.9836 73.4767 16.5284 76.4411 17.6043C79.6003 18.7204 82.5054 20.4548 84.9868 22.7062C87.4682 24.9575 89.4762 27.6807 90.8935 30.7167C92.3107 33.7528 93.1089 37.0407 93.2413 40.3886C93.3737 43.7365 92.8378 47.0773 91.6647 50.2157C85.579 66.9376 65.1298 75.3078 34.1924 87.9695L27.8477 90.5499C27.6234 90.6352 27.3847 90.676 27.1448 90.6701Z" fill="url(#paint0_linear)"/>
<defs>
<linearGradient id="paint0_linear" x1="1.78449" y1="71.8303" x2="77.588" y2="9.24338" gradientUnits="userSpaceOnUse">
<stop stop-color="#DF1D1D"/>
<stop offset="0.689008" stop-color="#EF5350"/>
</linearGradient>
</defs>
</svg>
