<svg width="593" height="689" viewBox="0 0 593 689" fill="none" xmlns="http://www.w3.org/2000/svg">
<g style="mix-blend-mode:soft-light" opacity="0.4">
<path fill-rule="evenodd" clip-rule="evenodd" d="M0 0H9H85.486H94.486C94.486 47.2126 56.2126 85.486 9 85.486V85.0179C6.04227 85.3274 3.03966 85.486 0 85.486V0ZM589.486 0H504V85.486C551.213 85.486 589.486 47.2126 589.486 0ZM0 99.1196H85.486V184.606H0V99.1196ZM580.486 99.1196H495V184.606H580.486V99.1196ZM0 283.951C0 236.738 38.2734 198.465 85.486 198.465V283.951H0ZM580.486 198.465C533.273 198.465 495 236.738 495 283.951H580.486V198.465ZM0 340.327C0 316.721 19.1367 297.584 42.743 297.584C66.3493 297.584 85.486 316.721 85.486 340.327C85.486 363.933 66.3493 383.07 42.743 383.07C19.1367 383.07 0 363.933 0 340.327ZM537.743 297.584C514.137 297.584 495 316.721 495 340.327C495 363.933 514.137 383.07 537.743 383.07C561.349 383.07 580.486 363.933 580.486 340.327C580.486 316.721 561.349 297.584 537.743 297.584ZM99.0552 42.743C99.0552 19.1367 118.192 0 141.798 0C143.318 0 144.819 0.0793236 146.298 0.234057C147.777 0.0793236 149.278 0 150.798 0C174.404 0 193.541 19.1367 193.541 42.743C193.541 66.3493 174.404 85.486 150.798 85.486C149.278 85.486 147.777 85.4067 146.298 85.2519C144.819 85.4067 143.318 85.486 141.798 85.486C118.192 85.486 99.0552 66.3493 99.0552 42.743ZM99.0552 184.605C99.0552 137.393 137.329 99.1192 184.541 99.1192V184.605H99.0552ZM184.541 198.465H99.0552V283.951C146.268 283.951 184.541 245.678 184.541 198.465ZM99.0552 297.584H184.541C184.541 344.797 146.268 383.07 99.0552 383.07V297.584ZM240.854 0C217.247 0 198.111 19.1367 198.111 42.743C198.111 66.3493 217.247 85.486 240.854 85.486H283.597V0H240.854ZM198.11 141.862C198.11 118.256 217.247 99.1192 240.853 99.1192C264.46 99.1192 283.596 118.256 283.596 141.862C283.596 165.469 264.46 184.605 240.853 184.605C217.247 184.605 198.11 165.469 198.11 141.862ZM283.596 283.951V198.465H198.11V283.951H283.596ZM198.11 297.584H240.853C264.46 297.584 283.596 316.721 283.596 340.327C283.596 363.933 264.46 383.07 240.853 383.07H198.11V297.584ZM382.652 0H297.166V85.486H382.652V0ZM297.166 99.1192H382.652V184.605C335.44 184.605 297.166 146.332 297.166 99.1192ZM382.652 198.239H297.166V283.725C344.379 283.725 382.652 245.451 382.652 198.239ZM396.221 0H438.964C462.571 0 481.707 19.1367 481.707 42.743C481.707 66.3493 462.571 85.486 438.964 85.486H396.221V0ZM438.964 99.1192C415.358 99.1192 396.221 118.256 396.221 141.862C396.221 165.469 415.358 184.605 438.964 184.605C462.571 184.605 481.707 165.469 481.707 141.862C481.707 118.256 462.571 99.1192 438.964 99.1192ZM396.221 241.208C396.221 217.602 415.358 198.465 438.964 198.465C462.571 198.465 481.707 217.602 481.707 241.208C481.707 264.814 462.571 283.951 438.964 283.951C415.358 283.951 396.221 264.814 396.221 241.208ZM7 405H92.486C92.486 452.213 54.2126 490.486 7 490.486V405ZM507 405H592.486C592.486 452.213 554.213 490.486 507 490.486V405ZM92.486 504.12H7V589.606H92.486V504.12ZM507 504.12H592.486V589.606H507V504.12ZM85.486 603.465C38.2734 603.465 0 641.738 0 688.951H85.486V603.465ZM500 688.951C500 641.738 538.273 603.465 585.486 603.465V688.951H500ZM141.798 405C118.192 405 99.0552 424.137 99.0552 447.743C99.0552 471.349 118.192 490.486 141.798 490.486C165.405 490.486 184.541 471.349 184.541 447.743C184.541 424.137 165.405 405 141.798 405ZM99.0552 589.605C99.0552 542.393 137.329 504.119 184.541 504.119V589.605H99.0552ZM99.0552 688.951C146.268 688.951 184.541 650.678 184.541 603.465H99.0552V688.951ZM198.111 447.743C198.111 424.137 217.247 405 240.854 405H283.597V490.486H240.854C217.247 490.486 198.111 471.349 198.111 447.743ZM240.853 504.119C217.247 504.119 198.11 523.256 198.11 546.862C198.11 570.469 217.247 589.605 240.853 589.605C264.46 589.605 283.596 570.469 283.596 546.862C283.596 523.256 264.46 504.119 240.853 504.119ZM283.596 603.465V688.951H198.11V603.465H283.596ZM382.652 405H297.166V490.486H382.652V405ZM297.166 504.119H382.652V589.605C335.44 589.605 297.166 551.332 297.166 504.119ZM382.652 603.239H297.166V688.725C344.379 688.725 382.652 650.451 382.652 603.239ZM396.221 405H438.964C462.571 405 481.707 424.137 481.707 447.743C481.707 471.349 462.571 490.486 438.964 490.486H396.221V405ZM438.964 504.119C415.358 504.119 396.221 523.256 396.221 546.862C396.221 570.469 415.358 589.605 438.964 589.605C462.571 589.605 481.707 570.469 481.707 546.862C481.707 523.256 462.571 504.119 438.964 504.119ZM396.221 646.208C396.221 622.602 415.358 603.465 438.964 603.465C462.571 603.465 481.707 622.602 481.707 646.208C481.707 669.814 462.571 688.951 438.964 688.951C415.358 688.951 396.221 669.814 396.221 646.208Z" fill="url(#paint0_linear)"/>
</g>
<defs>
<linearGradient id="paint0_linear" x1="-307.416" y1="227.608" x2="280.226" y2="783.261" gradientUnits="userSpaceOnUse">
<stop stop-color="white"/>
<stop offset="1" stop-color="white" stop-opacity="0"/>
</linearGradient>
</defs>
</svg>
